<svg xmlns="http://www.w3.org/2000/svg" xmlns:xlink="http://www.w3.org/1999/xlink" width="1080" zoomAndPan="magnify" viewBox="0 0 810 809.999993" height="1080" preserveAspectRatio="xMidYMid meet" version="1.0"><defs><clipPath id="31a01445d3"><path d="M 129.632812 365.386719 L 632.132812 365.386719 L 632.132812 466.636719 L 129.632812 466.636719 Z M 129.632812 365.386719 " clip-rule="nonzero"/></clipPath></defs><g clip-path="url(#31a01445d3)"><path fill="#fdfdfd" d="M 33.832031 178.28125 C 272.175781 178.28125 510.519531 178.28125 756.082031 178.28125 C 756.082031 337.179688 756.082031 496.074219 756.082031 659.78125 C 517.742188 659.78125 279.398438 659.78125 33.832031 659.78125 C 33.832031 500.886719 33.832031 341.992188 33.832031 178.28125 Z M 33.832031 178.28125 " fill-opacity="1" fill-rule="nonzero"/></g><path fill="#070707" d="M 258.949219 375.890625 C 259.785156 376.621094 260.605469 377.367188 261.417969 378.125 C 261.652344 378.34375 261.886719 378.5625 262.128906 378.785156 C 267.402344 383.726562 272.613281 389.414062 272.957031 397 C 272.992188 400.199219 272.742188 402.75 270.820312 405.398438 C 269.761719 406.25 269.761719 406.25 268.472656 406.808594 C 267.070312 406.535156 267.070312 406.535156 265.5625 405.953125 C 261.378906 404.535156 258.152344 404.34375 254.074219 406.191406 C 249.609375 408.644531 247.488281 412.390625 245.902344 417.152344 C 245.398438 423.265625 246.203125 428.8125 250.277344 433.691406 C 250.539062 433.976562 250.800781 434.257812 251.074219 434.550781 C 251.355469 434.855469 251.636719 435.164062 251.929688 435.480469 C 259.425781 442.851562 269.757812 444.246094 279.757812 444.894531 C 279.757812 447.996094 279.757812 451.101562 279.757812 454.300781 C 263.121094 457.425781 244.703125 459.65625 229.878906 449.84375 C 222.035156 444.4375 216.710938 436.96875 214.722656 427.59375 C 213.105469 418.714844 215.351562 410.171875 220.039062 402.574219 C 225.4375 394.851562 233.082031 389.691406 242.328125 387.71875 C 244.765625 387.335938 247.226562 387.304688 249.691406 387.234375 C 250.503906 387.207031 250.503906 387.207031 251.332031 387.179688 C 252.65625 387.136719 253.980469 387.09375 255.304688 387.058594 C 246.785156 379.863281 237.261719 376.84375 226.152344 377.652344 C 214.480469 379.199219 204.753906 386.226562 197.621094 395.347656 C 194.523438 399.390625 191.597656 403.535156 188.804688 407.792969 C 183.285156 416.195312 177.339844 424.222656 170.390625 431.503906 C 169.9375 431.976562 169.484375 432.457031 169.035156 432.933594 C 160.035156 442.511719 148.742188 449.828125 136.488281 454.535156 C 136.175781 454.652344 135.867188 454.773438 135.546875 454.898438 C 133.769531 455.550781 132.648438 455.710938 130.699219 455.710938 C 130.699219 452.296875 130.699219 448.882812 130.699219 445.363281 C 131.464844 445.0625 132.230469 444.761719 133.019531 444.453125 C 139.007812 441.953125 144.71875 438.828125 149.976562 435.019531 C 150.476562 434.660156 150.976562 434.300781 151.488281 433.933594 C 158.164062 428.980469 164.277344 422.859375 169.253906 416.210938 C 169.496094 415.890625 169.738281 415.570312 169.988281 415.242188 C 173.046875 411.183594 176.015625 407.082031 178.808594 402.839844 C 189.472656 386.648438 201.367188 371.9375 221.105469 367.429688 C 233.917969 365.09375 248.597656 367.691406 258.949219 375.890625 Z M 258.949219 375.890625 " fill-opacity="1" fill-rule="nonzero"/><path fill="#080808" d="M 425.523438 382.355469 C 429.558594 382.355469 433.589844 382.355469 437.75 382.355469 C 440.441406 388.820312 440.441406 388.820312 441.625 392.019531 C 441.902344 392.761719 442.179688 393.503906 442.453125 394.25 C 442.597656 394.632812 442.742188 395.015625 442.886719 395.414062 C 445.429688 402.253906 448.015625 409.078125 450.648438 415.886719 C 453.246094 422.601562 455.785156 429.332031 458.289062 436.078125 C 458.53125 436.722656 458.53125 436.722656 458.777344 437.382812 C 459.644531 439.71875 460.507812 442.050781 461.367188 444.390625 C 461.699219 445.277344 462.027344 446.167969 462.359375 447.058594 C 462.535156 447.523438 462.707031 447.992188 462.882812 448.472656 C 463.101562 449.050781 463.101562 449.050781 463.320312 449.640625 C 463.609375 450.539062 463.609375 450.539062 463.609375 451.476562 C 459.421875 451.476562 455.230469 451.476562 450.914062 451.476562 C 450.175781 449.417969 449.4375 447.359375 448.703125 445.300781 C 448.453125 444.601562 448.203125 443.898438 447.953125 443.199219 C 447.589844 442.195312 447.230469 441.1875 446.875 440.179688 C 446.761719 439.867188 446.648438 439.554688 446.53125 439.230469 C 445.742188 437.007812 445.742188 437.007812 445.742188 435.960938 C 436.433594 435.960938 427.121094 435.960938 417.527344 435.960938 C 417.21875 437.355469 416.910156 438.753906 416.589844 440.191406 C 416.273438 441.160156 415.933594 442.121094 415.570312 443.074219 C 415.402344 443.523438 415.230469 443.96875 415.058594 444.429688 C 414.84375 444.980469 414.632812 445.53125 414.414062 446.097656 C 413.734375 447.875 413.054688 449.648438 412.355469 451.476562 C 408.167969 451.476562 403.976562 451.476562 399.660156 451.476562 C 399.972656 450.621094 400.289062 449.769531 400.609375 448.886719 C 400.921875 448.042969 400.921875 448.042969 401.238281 447.179688 C 401.703125 445.914062 402.164062 444.648438 402.628906 443.382812 C 403.8125 440.164062 404.988281 436.945312 406.164062 433.722656 C 408.347656 427.738281 410.566406 421.765625 412.871094 415.824219 C 414.542969 411.5 416.15625 407.15625 417.765625 402.808594 C 420.292969 395.96875 422.890625 389.15625 425.523438 382.355469 Z M 425.523438 382.355469 " fill-opacity="1" fill-rule="nonzero"/><path fill="#090909" d="M 569.6875 404.273438 C 573.449219 406.9375 575.359375 410.386719 576.460938 414.800781 C 577.113281 418.816406 576.992188 422.902344 576.976562 426.957031 C 576.976562 427.667969 576.976562 428.375 576.976562 429.085938 C 576.972656 430.941406 576.96875 432.792969 576.964844 434.648438 C 576.960938 436.546875 576.957031 438.445312 576.953125 440.339844 C 576.949219 444.054688 576.941406 447.765625 576.933594 451.476562 C 573.519531 451.476562 570.105469 451.476562 566.585938 451.476562 C 566.355469 447.984375 566.355469 447.984375 566.117188 444.425781 C 565.492188 445.296875 565.492188 445.296875 564.851562 446.1875 C 562.1875 449.707031 558.742188 451.734375 554.363281 452.417969 C 548.972656 452.859375 543.914062 452.050781 539.664062 448.507812 C 535.769531 444.75 534.585938 440.761719 534.40625 435.402344 C 534.523438 431.339844 535.535156 429.238281 538.433594 426.4375 C 544.496094 421.457031 553.324219 421.3125 560.882812 421.105469 C 562.65625 420.875 564.351562 420.328125 565.648438 419.03125 C 565.957031 417.199219 566.023438 415.503906 565.132812 413.839844 C 563.621094 411.953125 561.949219 410.554688 559.535156 410.097656 C 556.089844 409.792969 552.484375 409.488281 549.429688 411.347656 C 548.144531 412.488281 547.558594 413.714844 546.839844 415.269531 C 546.527344 415.890625 546.21875 416.511719 545.898438 417.152344 C 542.792969 417.152344 539.691406 417.152344 536.492188 417.152344 C 536.492188 412.847656 537.046875 409.953125 539.960938 406.71875 C 547.714844 399.519531 560.878906 398.804688 569.6875 404.273438 Z M 569.6875 404.273438 " fill-opacity="1" fill-rule="nonzero"/><path fill="#070707" d="M 352.167969 382.355469 C 369.238281 382.355469 386.308594 382.355469 403.894531 382.355469 C 403.894531 386.546875 403.894531 390.734375 403.894531 395.050781 C 397.839844 395.050781 391.789062 395.050781 385.554688 395.050781 C 385.554688 413.828125 385.554688 432.601562 385.554688 451.949219 C 380.746094 451.949219 375.933594 451.949219 370.976562 451.949219 C 370.976562 433.171875 370.976562 414.394531 370.976562 395.050781 C 364.769531 395.050781 358.5625 395.050781 352.167969 395.050781 C 352.167969 390.863281 352.167969 386.671875 352.167969 382.355469 Z M 352.167969 382.355469 " fill-opacity="1" fill-rule="nonzero"/><path fill="#080808" d="M 295.273438 382.355469 C 311.875 382.355469 328.480469 382.355469 345.585938 382.355469 C 345.585938 386.546875 345.585938 390.734375 345.585938 395.050781 C 339.691406 395.050781 333.792969 395.050781 327.71875 395.050781 C 327.71875 413.828125 327.71875 432.601562 327.71875 451.949219 C 323.0625 451.949219 318.40625 451.949219 313.613281 451.949219 C 313.613281 433.171875 313.613281 414.394531 313.613281 395.050781 C 307.558594 395.050781 301.507812 395.050781 295.273438 395.050781 C 295.273438 390.863281 295.273438 386.671875 295.273438 382.355469 Z M 295.273438 382.355469 " fill-opacity="1" fill-rule="nonzero"/><path fill="#090908" d="M 618.578125 402.390625 C 623.65625 405.296875 626.15625 409.421875 627.789062 414.882812 C 628.519531 418.203125 628.414062 421.507812 628.367188 424.890625 C 628.367188 425.660156 628.363281 426.433594 628.359375 427.203125 C 628.355469 429.214844 628.335938 431.222656 628.316406 433.230469 C 628.296875 435.289062 628.285156 437.347656 628.277344 439.40625 C 628.257812 443.429688 628.222656 447.453125 628.183594 451.476562 C 624.617188 451.476562 621.046875 451.476562 617.371094 451.476562 C 617.367188 450.566406 617.363281 449.652344 617.355469 448.710938 C 617.339844 445.675781 617.316406 442.640625 617.285156 439.605469 C 617.265625 437.769531 617.25 435.929688 617.242188 434.09375 C 617.234375 432.316406 617.21875 430.539062 617.199219 428.761719 C 617.191406 428.085938 617.1875 427.410156 617.1875 426.738281 C 617.179688 422.039062 616.824219 417.53125 613.933594 413.625 C 611.226562 411.109375 608.726562 410.742188 605.117188 410.847656 C 602.230469 411.25 600.359375 412.738281 598.621094 415.007812 C 596.96875 417.402344 596.5625 419.890625 596.53125 422.757812 C 596.527344 423.070312 596.523438 423.382812 596.515625 423.703125 C 596.503906 424.726562 596.496094 425.75 596.488281 426.773438 C 596.476562 427.484375 596.46875 428.199219 596.457031 428.910156 C 596.433594 430.78125 596.417969 432.648438 596.398438 434.519531 C 596.378906 436.429688 596.355469 438.339844 596.332031 440.25 C 596.285156 443.992188 596.246094 447.734375 596.210938 451.476562 C 592.640625 451.476562 589.074219 451.476562 585.394531 451.476562 C 585.394531 435.183594 585.394531 418.890625 585.394531 402.105469 C 588.964844 402.105469 592.535156 402.105469 596.210938 402.105469 C 596.367188 404.121094 596.519531 406.140625 596.679688 408.21875 C 597.203125 407.566406 597.726562 406.917969 598.269531 406.25 C 603.21875 400.644531 611.804688 399.46875 618.578125 402.390625 Z M 618.578125 402.390625 " fill-opacity="1" fill-rule="nonzero"/><path fill="#080808" d="M 499.789062 404.367188 C 502.757812 406.535156 504.738281 408.933594 505.929688 412.449219 C 506.097656 413.546875 506.257812 414.640625 506.398438 415.742188 C 504.804688 415.851562 503.207031 415.917969 501.609375 415.976562 C 501.15625 416.007812 500.707031 416.039062 500.242188 416.070312 C 498.90625 416.109375 497.816406 416.09375 496.523438 415.742188 C 495.664062 414.851562 495.183594 414.03125 494.664062 412.910156 C 493.941406 411.542969 493.019531 410.988281 491.625 410.390625 C 487.84375 409.480469 483.90625 409.488281 480.539062 411.507812 C 479.136719 412.835938 478.707031 413.5625 478.394531 415.476562 C 478.730469 417.617188 479.453125 418.488281 481.007812 419.972656 C 482.71875 420.785156 484.417969 421.179688 486.269531 421.539062 C 486.832031 421.652344 487.390625 421.765625 487.96875 421.882812 C 489.132812 422.117188 490.300781 422.34375 491.464844 422.570312 C 496.746094 423.652344 502.066406 424.886719 505.460938 429.378906 C 507.679688 433.074219 507.921875 437.398438 507.050781 441.578125 C 505.867188 445.328125 503.867188 447.855469 500.46875 449.847656 C 493.558594 453.207031 485.042969 453.582031 477.757812 451.160156 C 473.554688 449.355469 470.191406 446.628906 468.300781 442.402344 C 467.503906 440.21875 467.371094 438.863281 467.371094 436.429688 C 470.941406 436.429688 474.511719 436.429688 478.1875 436.429688 C 478.652344 437.671875 479.117188 438.914062 479.597656 440.191406 C 482.550781 443.082031 484.582031 443.664062 488.660156 443.660156 C 491.316406 443.59375 492.941406 443.09375 495.113281 441.601562 C 496.382812 439.699219 496.414062 438.195312 496.054688 435.960938 C 494.855469 433.988281 493.5 433.460938 491.351562 432.902344 C 490.257812 432.664062 489.160156 432.429688 488.0625 432.199219 C 486.382812 431.828125 484.710938 431.441406 483.035156 431.050781 C 482.621094 430.960938 482.210938 430.871094 481.785156 430.777344 C 476.855469 429.644531 472.285156 427.789062 469.078125 423.734375 C 467.074219 420.035156 466.777344 416.199219 467.644531 412.097656 C 469.050781 407.992188 472.074219 405.074219 475.863281 403.074219 C 483.171875 399.589844 492.949219 400.144531 499.789062 404.367188 Z M 499.789062 404.367188 " fill-opacity="1" fill-rule="nonzero"/><path fill="#0c0c0b" d="M 515.804688 402.105469 C 519.371094 402.105469 522.941406 402.105469 526.617188 402.105469 C 526.617188 418.398438 526.617188 434.691406 526.617188 451.476562 C 523.207031 451.476562 519.792969 451.476562 516.273438 451.476562 C 515.804688 451.007812 515.804688 451.007812 515.746094 450.1875 C 515.746094 449.824219 515.746094 449.464844 515.746094 449.09375 C 515.746094 448.683594 515.746094 448.269531 515.746094 447.84375 C 515.746094 447.390625 515.75 446.933594 515.75 446.464844 C 515.75 445.988281 515.75 445.511719 515.75 445.019531 C 515.75 443.433594 515.753906 441.847656 515.757812 440.265625 C 515.757812 439.167969 515.757812 438.074219 515.761719 436.976562 C 515.761719 434.085938 515.765625 431.195312 515.773438 428.304688 C 515.777344 425.359375 515.777344 422.414062 515.78125 419.464844 C 515.785156 413.679688 515.792969 407.890625 515.804688 402.105469 Z M 515.804688 402.105469 " fill-opacity="1" fill-rule="nonzero"/><path fill="#f9fafa" d="M 246.839844 398.34375 C 246.570312 398.542969 246.296875 398.742188 246.015625 398.949219 C 242.222656 401.796875 239.933594 404.449219 237.789062 408.660156 C 237.628906 408.972656 237.46875 409.289062 237.300781 409.609375 C 234.347656 415.644531 234.0625 422.746094 236.085938 429.140625 C 238.300781 435.601562 241.992188 440.609375 246.839844 445.363281 C 240.367188 444.921875 234.820312 441.078125 230.441406 436.519531 C 226.28125 431.671875 224.964844 426.144531 225.0625 419.886719 C 225.570312 413.730469 228.75 407.902344 233.179688 403.6875 C 236.328125 401.25 242.761719 396.984375 246.839844 398.34375 Z M 246.839844 398.34375 " fill-opacity="1" fill-rule="nonzero"/><path fill="#fafafa" d="M 431.164062 395.992188 C 431.476562 395.992188 431.785156 395.992188 432.105469 395.992188 C 432.257812 396.449219 432.410156 396.90625 432.5625 397.375 C 433.273438 399.511719 433.980469 401.644531 434.691406 403.78125 C 434.820312 404.164062 434.945312 404.546875 435.078125 404.941406 C 436.828125 410.199219 438.601562 415.445312 440.457031 420.664062 C 440.597656 421.0625 440.742188 421.460938 440.886719 421.871094 C 441.007812 422.210938 441.128906 422.554688 441.253906 422.902344 C 441.511719 423.734375 441.511719 423.734375 441.511719 424.675781 C 434.992188 424.675781 428.476562 424.675781 421.761719 424.675781 C 422.617188 421.816406 423.480469 418.992188 424.460938 416.179688 C 424.703125 415.476562 424.945312 414.777344 425.1875 414.078125 C 425.558594 413.003906 425.929688 411.929688 426.304688 410.855469 C 428.011719 405.925781 429.640625 400.980469 431.164062 395.992188 Z M 431.164062 395.992188 " fill-opacity="1" fill-rule="nonzero"/><path fill="#fafafa" d="M 566.585938 426.554688 C 566.871094 431.660156 566.964844 435.722656 563.375 439.746094 C 560.503906 442.476562 557.828125 443.53125 553.890625 443.691406 C 550.613281 443.597656 548.425781 442.777344 546.164062 440.398438 C 544.875 438.390625 544.636719 436.417969 544.957031 434.078125 C 546.035156 431.964844 547.082031 430.894531 549.1875 429.847656 C 550.832031 429.539062 550.832031 429.539062 552.6875 429.347656 C 553.355469 429.273438 554.023438 429.199219 554.695312 429.125 C 555.199219 429.070312 555.199219 429.070312 555.714844 429.015625 C 557.242188 428.851562 558.769531 428.664062 560.296875 428.464844 C 560.808594 428.402344 561.320312 428.339844 561.84375 428.277344 C 563.390625 427.945312 565.105469 426.554688 566.585938 426.554688 Z M 566.585938 426.554688 " fill-opacity="1" fill-rule="nonzero"/><path fill="#090909" d="M 524.355469 381.503906 C 526.058594 382.601562 527.125 383.839844 528.03125 385.648438 C 528.292969 387.789062 528.222656 389.457031 527.324219 391.4375 C 525.644531 393.242188 523.917969 394.410156 521.421875 394.691406 C 518.765625 394.550781 517.089844 393.207031 515.332031 391.289062 C 514.40625 389.433594 514.660156 387.203125 514.863281 385.175781 C 515.710938 383.347656 516.398438 382.585938 518.066406 381.472656 C 520.375 380.660156 522.058594 380.648438 524.355469 381.503906 Z M 524.355469 381.503906 " fill-opacity="1" fill-rule="nonzero"/><path fill="#2a2a2a" d="M 370.976562 395.050781 C 371.289062 395.050781 371.597656 395.050781 371.917969 395.050781 C 371.917969 413.515625 371.917969 431.984375 371.917969 451.007812 C 376.109375 451.007812 380.296875 451.007812 384.613281 451.007812 C 384.769531 441.695312 384.925781 432.386719 385.085938 422.792969 C 385.238281 422.792969 385.394531 422.792969 385.554688 422.792969 C 385.554688 432.414062 385.554688 442.035156 385.554688 451.949219 C 380.746094 451.949219 375.933594 451.949219 370.976562 451.949219 C 370.976562 433.171875 370.976562 414.394531 370.976562 395.050781 Z M 370.976562 395.050781 " fill-opacity="1" fill-rule="nonzero"/><path fill="#121212" d="M 352.167969 382.355469 C 369.238281 382.355469 386.308594 382.355469 403.894531 382.355469 C 403.894531 386.234375 403.894531 390.113281 403.894531 394.113281 C 403.582031 393.957031 403.273438 393.800781 402.953125 393.640625 C 402.953125 390.226562 402.953125 386.8125 402.953125 383.296875 C 396.53125 383.347656 390.109375 383.398438 383.6875 383.457031 C 380.707031 383.480469 377.726562 383.507812 374.746094 383.53125 C 371.871094 383.550781 368.996094 383.578125 366.121094 383.601562 C 365.019531 383.613281 363.921875 383.621094 362.824219 383.628906 C 361.289062 383.640625 359.753906 383.65625 358.21875 383.671875 C 357.761719 383.671875 357.300781 383.675781 356.832031 383.679688 C 356.414062 383.683594 355.996094 383.6875 355.566406 383.691406 C 355.203125 383.695312 354.839844 383.699219 354.464844 383.703125 C 353.539062 383.714844 353.539062 383.714844 352.640625 384.238281 C 352.640625 387.652344 352.640625 391.0625 352.640625 394.582031 C 358.691406 394.582031 364.742188 394.582031 370.976562 394.582031 C 370.976562 394.738281 370.976562 394.890625 370.976562 395.050781 C 364.769531 395.050781 358.5625 395.050781 352.167969 395.050781 C 352.167969 390.863281 352.167969 386.671875 352.167969 382.355469 Z M 352.167969 382.355469 " fill-opacity="1" fill-rule="nonzero"/><path fill="#000000" d="M 403.894531 394.113281 C 403.894531 394.421875 403.894531 394.730469 403.894531 395.050781 C 401.433594 395.074219 398.972656 395.09375 396.511719 395.101562 C 395.675781 395.109375 394.835938 395.113281 394 395.121094 C 392.796875 395.132812 391.59375 395.140625 390.394531 395.144531 C 390.015625 395.148438 389.640625 395.152344 389.253906 395.160156 C 388.332031 395.160156 387.414062 395.109375 386.496094 395.050781 C 386.183594 394.742188 385.875 394.429688 385.554688 394.113281 C 388.015625 394.03125 390.476562 393.957031 392.9375 393.882812 C 393.773438 393.859375 394.609375 393.832031 395.449219 393.804688 C 396.652344 393.769531 397.851562 393.734375 399.054688 393.699219 C 399.429688 393.683594 399.804688 393.671875 400.195312 393.660156 C 402.84375 393.585938 402.84375 393.585938 403.894531 394.113281 Z M 403.894531 394.113281 " fill-opacity="1" fill-rule="nonzero"/><path fill="#131313" d="M 477.714844 436.429688 C 477.832031 436.683594 477.949219 436.933594 478.070312 437.195312 C 479.480469 439.875 480.796875 441.382812 483.359375 443.015625 C 483.359375 443.324219 483.359375 443.632812 483.359375 443.953125 C 481.773438 443.632812 481.773438 443.632812 480.066406 443.015625 C 479.390625 441.78125 479.390625 441.78125 479.128906 440.664062 C 478.816406 440.664062 478.507812 440.664062 478.1875 440.664062 C 477.1875 437.488281 477.1875 437.488281 477.714844 436.429688 Z M 477.714844 436.429688 " fill-opacity="1" fill-rule="nonzero"/><path fill="#2c2c2c" d="M 215.335938 416.683594 C 215.9375 418.480469 215.742188 420.082031 215.601562 421.941406 C 215.578125 422.292969 215.550781 422.648438 215.527344 423.011719 C 215.464844 423.878906 215.402344 424.746094 215.335938 425.617188 C 215.027344 425.617188 214.714844 425.617188 214.394531 425.617188 C 214.371094 424.304688 214.351562 422.992188 214.335938 421.679688 C 214.328125 421.304688 214.320312 420.929688 214.3125 420.546875 C 214.304688 419.570312 214.347656 418.597656 214.394531 417.621094 C 214.707031 417.3125 215.015625 417 215.335938 416.683594 Z M 215.335938 416.683594 " fill-opacity="1" fill-rule="nonzero"/><path fill="#141414" d="M 547.308594 450.539062 C 547.773438 450.691406 548.238281 450.847656 548.71875 451.007812 C 549.765625 451.113281 550.8125 451.199219 551.863281 451.273438 C 552.417969 451.3125 552.972656 451.351562 553.542969 451.390625 C 554.183594 451.433594 554.183594 451.433594 554.832031 451.476562 C 554.675781 451.789062 554.523438 452.097656 554.363281 452.417969 C 553.371094 452.457031 552.382812 452.484375 551.394531 452.507812 C 550.84375 452.523438 550.292969 452.539062 549.722656 452.554688 C 548.25 452.417969 548.25 452.417969 547.347656 451.707031 C 547.179688 451.476562 547.011719 451.246094 546.839844 451.007812 C 546.992188 450.851562 547.148438 450.695312 547.308594 450.539062 Z M 547.308594 450.539062 " fill-opacity="1" fill-rule="nonzero"/><path fill="#e8e8e8" d="M 246.839844 398.34375 C 245.519531 399.3125 245.519531 399.3125 244.019531 400.222656 C 243.554688 400.070312 243.089844 399.914062 242.609375 399.753906 C 243.550781 398.34375 243.550781 398.34375 244.460938 397.992188 C 245.429688 397.875 245.429688 397.875 246.839844 398.34375 Z M 246.839844 398.34375 " fill-opacity="1" fill-rule="nonzero"/><path fill="#111111" d="M 468.78125 439.722656 C 468.9375 439.722656 469.09375 439.722656 469.253906 439.722656 C 469.253906 440.652344 469.253906 441.585938 469.253906 442.542969 C 469.5625 442.542969 469.875 442.542969 470.191406 442.542969 C 470.191406 443.164062 470.191406 443.785156 470.191406 444.425781 C 469.882812 444.425781 469.574219 444.425781 469.253906 444.425781 C 468.40625 443.128906 468.304688 442.59375 468.488281 441.015625 C 468.585938 440.589844 468.683594 440.160156 468.78125 439.722656 Z M 468.78125 439.722656 " fill-opacity="1" fill-rule="nonzero"/><path fill="#0f0f0f" d="M 541.664062 424.207031 C 541.976562 424.359375 542.285156 424.515625 542.605469 424.675781 C 542.140625 425.140625 541.675781 425.605469 541.195312 426.085938 C 540.886719 425.777344 540.574219 425.464844 540.253906 425.144531 C 540.722656 424.835938 541.1875 424.523438 541.664062 424.207031 Z M 539.316406 425.617188 C 539.625 425.769531 539.9375 425.925781 540.253906 426.085938 C 539.480469 426.863281 538.703125 427.636719 537.902344 428.4375 C 538.785156 426.144531 538.785156 426.144531 539.316406 425.617188 Z M 539.316406 425.617188 " fill-opacity="1" fill-rule="nonzero"/><path fill="#131212" d="M 540.253906 448.1875 C 541.339844 448.496094 542.425781 448.808594 543.546875 449.125 C 543.703125 449.746094 543.855469 450.367188 544.015625 451.007812 C 542.777344 450.386719 541.535156 449.765625 540.253906 449.125 C 540.253906 448.816406 540.253906 448.507812 540.253906 448.1875 Z M 540.253906 448.1875 " fill-opacity="1" fill-rule="nonzero"/><path fill="#0f1010" d="M 565.175781 402.574219 C 566.75 402.835938 568.011719 403.210938 569.410156 403.984375 C 569.410156 404.296875 569.410156 404.605469 569.410156 404.925781 C 567.929688 404.597656 566.574219 404.097656 565.175781 403.515625 C 565.175781 403.207031 565.175781 402.894531 565.175781 402.574219 Z M 565.175781 402.574219 " fill-opacity="1" fill-rule="nonzero"/><path fill="#131313" d="M 446.210938 407.277344 C 446.679688 407.433594 447.144531 407.585938 447.621094 407.746094 C 448.179688 409.421875 448.179688 409.421875 448.5625 411.039062 C 448.097656 410.882812 447.632812 410.730469 447.152344 410.570312 C 446.59375 408.894531 446.59375 408.894531 446.210938 407.277344 Z M 446.210938 407.277344 " fill-opacity="1" fill-rule="nonzero"/><path fill="#131313" d="M 188.535156 389.878906 C 188.84375 390.191406 189.15625 390.5 189.476562 390.820312 C 189.007812 390.976562 188.542969 391.128906 188.0625 391.289062 C 187.910156 391.601562 187.753906 391.910156 187.59375 392.230469 C 187.4375 392.539062 187.285156 392.851562 187.125 393.171875 C 186.660156 393.324219 186.191406 393.480469 185.714844 393.640625 C 186.390625 392.058594 187.28125 391.050781 188.535156 389.878906 Z M 188.535156 389.878906 " fill-opacity="1" fill-rule="nonzero"/><path fill="#0f0e0e" d="M 217.6875 435.492188 C 218.628906 435.492188 218.628906 435.492188 219.390625 436.078125 C 220.039062 436.902344 220.039062 436.902344 220.039062 438.78125 C 219.730469 438.78125 219.417969 438.78125 219.097656 438.78125 C 217.6875 436.71875 217.6875 436.71875 217.6875 435.492188 Z M 217.6875 435.492188 " fill-opacity="1" fill-rule="nonzero"/><path fill="#101010" d="M 519.566406 380.945312 C 520.652344 380.945312 521.738281 380.945312 522.855469 380.945312 C 522.855469 381.410156 522.855469 381.875 522.855469 382.355469 C 521.769531 382.355469 520.683594 382.355469 519.566406 382.355469 C 519.566406 381.890625 519.566406 381.425781 519.566406 380.945312 Z M 519.566406 380.945312 " fill-opacity="1" fill-rule="nonzero"/></svg>